<?xml version="1.0" standalone="no"?>
<!DOCTYPE svg PUBLIC "-//W3C//DTD SVG 20010904//EN"
 "http://www.w3.org/TR/2001/REC-SVG-20010904/DTD/svg10.dtd">
<svg version="1.0" xmlns="http://www.w3.org/2000/svg"
 width="512.000000pt" height="512.000000pt" viewBox="0 0 512.000000 512.000000"
 preserveAspectRatio="xMidYMid meet">

<g transform="translate(0.000000,512.000000) scale(0.100000,-0.100000)"
fill="#000000" stroke="none">
<path fill="#4F46E5CC" d="M2896 5064 c-202 -44 -273 -92 -583 -397 -85 -85 -147 -138 -155
-135 -7 3 -193 117 -413 254 -220 136 -412 252 -427 258 -23 8 -33 7 -55 -10
-39 -29 -573 -918 -573 -953 0 -17 11 -37 28 -53 22 -20 542 -351 1771 -1125
47 -30 96 -53 111 -53 38 0 61 29 215 270 76 118 143 221 150 229 11 11 28 4
105 -43 124 -75 187 -97 290 -103 153 -10 220 14 448 159 l142 90 43 -45 c72
-78 87 -81 367 -85 268 -4 309 1 328 43 9 19 12 188 12 614 0 583 0 589 -21
615 l-21 27 -292 -2 -292 -1 -335 188 c-183 103 -363 200 -399 215 -135 57
-303 73 -444 43z m266 -148 c102 -20 113 -26 476 -229 293 -164 323 -183 315
-201 -4 -12 -9 -208 -10 -437 -3 -380 -5 -418 -21 -431 -32 -28 -338 -217
-388 -240 -63 -29 -207 -32 -268 -5 -22 10 -212 122 -424 250 -410 247 -422
257 -422 332 0 82 77 148 150 128 19 -5 156 -85 304 -176 151 -93 280 -167
294 -167 79 0 107 97 39 140 -37 23 -541 336 -730 452 l-177 110 171 166 c94
92 202 188 239 214 140 95 288 126 452 94z m-1774 -90 c59 -36 58 -42 -11 -71
-41 -17 -117 -20 -117 -5 0 13 60 110 68 110 4 0 31 -15 60 -34z m597 -369
c215 -132 394 -243 399 -248 4 -4 -10 -25 -32 -47 -51 -51 -69 -86 -80 -153
-15 -100 12 -193 74 -253 17 -17 130 -91 251 -163 120 -73 224 -137 231 -141
10 -7 1 -28 -38 -89 l-51 -81 -47 15 c-102 32 -250 -2 -334 -76 l-36 -32 -599
379 c-388 246 -597 384 -595 393 2 8 8 39 13 69 16 99 -23 234 -88 302 -31 32
-32 29 52 169 l65 107 38 -10 c20 -6 73 -8 117 -6 91 5 171 37 219 87 16 17
34 27 40 24 6 -3 187 -114 401 -246z m2565 -482 l0 -495 -207 0 c-198 0 -208
1 -230 22 l-23 21 0 449 0 449 25 24 c24 25 25 25 230 25 l205 0 0 -495z
m-3580 203 c18 -40 28 -138 14 -138 -6 0 -102 56 -112 66 -6 5 62 114 71 114
4 0 17 -19 27 -42z m1667 -1026 c9 -6 2 -23 -25 -64 l-37 -56 -58 35 c-67 41
-65 54 12 77 52 17 90 19 108 8z"/>
<path fill="#4F46E5CC" d="M1855 4227 c-94 -31 -172 -111 -196 -201 -16 -60 -6 -183 18 -231 27
-51 85 -106 143 -136 36 -18 62 -23 125 -23 128 -1 216 50 273 159 23 43 27
62 27 140 0 100 -18 149 -79 213 -70 75 -213 111 -311 79z m161 -156 c31 -14
47 -30 63 -63 26 -55 27 -90 1 -143 -67 -139 -280 -87 -280 68 0 119 107 187
216 138z"/>
<path fill="#4F46E5CC" d="M4261 3754 c-28 -35 -26 -69 4 -99 30 -30 64 -32 99 -4 33 26 36 79
6 109 -30 30 -83 27 -109 -6z"/>
<path fill="#4F46E5CC" d="M1665 2629 c-57 -14 -112 -55 -143 -108 l-27 -46 -3 -377 -3 -378
-159 0 -159 0 -15 28 c-21 41 -66 82 -111 103 -36 17 -70 19 -312 19 l-272 0
-20 -26 c-21 -26 -21 -33 -21 -774 0 -745 0 -747 21 -774 l21 -27 282 3 283 3
48 30 c44 27 87 85 106 144 3 7 150 -56 370 -158 202 -93 399 -181 439 -195
228 -83 497 -71 727 30 120 53 222 135 613 489 217 197 452 410 523 474 143
129 167 166 167 252 0 126 -104 239 -219 239 l-21 0 0 431 c0 313 -3 443 -12
473 -7 24 -30 59 -54 83 -77 76 -28 73 -1078 72 -539 -1 -948 -5 -971 -10z
m665 -389 l0 -241 25 -24 c38 -39 66 -32 179 44 l103 70 103 -70 c58 -39 112
-69 126 -69 14 0 36 11 49 25 l25 24 0 241 0 240 324 0 325 0 20 -26 c21 -26
21 -37 21 -479 l0 -452 -551 -269 c-303 -148 -555 -270 -559 -272 -5 -2 1 21
12 50 28 75 22 184 -16 261 -33 68 -93 130 -161 165 l-50 27 -304 5 -304 5
-18 54 c-10 29 -23 59 -29 66 -7 9 -10 146 -8 420 l3 407 24 19 c22 18 43 19
342 19 l319 0 0 -240z m460 85 l0 -155 -67 45 c-37 25 -75 45 -83 45 -14 0
-91 -42 -137 -76 l-23 -16 0 156 0 156 155 0 155 0 0 -155z m-1785 -630 l25
-24 0 -601 0 -601 -25 -24 c-24 -25 -25 -25 -230 -25 l-205 0 0 650 0 650 205
0 c205 0 206 0 230 -25z m504 -150 c10 -11 28 -50 40 -87 12 -37 31 -78 42
-92 l20 -26 307 0 c183 0 322 -4 345 -11 47 -13 106 -63 123 -106 33 -79 6
-177 -63 -230 l-36 -28 -223 -5 c-200 -5 -224 -7 -243 -24 -32 -29 -29 -88 5
-115 26 -20 38 -21 348 -21 l321 0 290 141 c160 78 400 195 535 261 427 210
469 228 498 217 44 -17 63 -59 46 -103 -7 -19 -995 -916 -1063 -965 -65 -47
-213 -116 -296 -137 -102 -25 -294 -23 -398 4 -44 12 -258 104 -500 216 l-422
194 -3 459 c-1 252 0 464 3 471 4 11 37 13 155 10 134 -3 151 -5 169 -23z"/>
<path fill="#4F46E5CC" d="M2890 1620 c-30 -30 -27 -83 6 -109 24 -19 40 -21 160 -21 73 0 140
3 149 6 23 9 47 61 39 87 -16 54 -26 57 -186 57 -135 0 -150 -2 -168 -20z"/>
<path fill="#4F46E5CC" d="M780 723 c-66 -24 -68 -119 -3 -144 60 -23 118 40 94 100 -16 38 -56
57 -91 44z"/>
</g>
</svg>
