<?xml version="1.0" standalone="no"?>
<!DOCTYPE svg PUBLIC "-//W3C//DTD SVG 20010904//EN"
 "http://www.w3.org/TR/2001/REC-SVG-20010904/DTD/svg10.dtd">
<svg version="1.0" xmlns="http://www.w3.org/2000/svg"
 width="512.000000pt" height="512.000000pt" viewBox="0 0 512.000000 512.000000"
 preserveAspectRatio="xMidYMid meet">

<g transform="translate(0.000000,512.000000) scale(0.100000,-0.100000)"
fill="#000000" stroke="none">
<path d="M2817 5110 c-362 -66 -643 -327 -729 -677 -27 -111 -29 -294 -4 -397
98 -411 452 -696 865 -697 124 -1 205 12 305 48 474 168 716 696 534 1166 -60
156 -197 325 -341 420 -77 51 -174 94 -266 119 -86 22 -287 32 -364 18z m615
-627 l56 -58 -291 -311 c-161 -171 -307 -321 -325 -334 -38 -27 -101 -32 -149
-11 -20 8 -75 65 -151 154 -65 78 -131 156 -145 173 l-27 32 119 101 120 101
73 -90 c40 -49 78 -88 84 -87 6 1 113 111 238 245 l228 242 57 -49 c31 -27 81
-76 113 -108z"/>
<path d="M372 4858 l3 -153 265 -3 265 -2 344 -1440 c189 -793 342 -1442 340
-1444 -51 -38 -756 -657 -783 -686 -64 -71 -81 -120 -81 -235 0 -88 3 -107 27
-157 33 -71 102 -146 166 -181 72 -39 149 -47 484 -47 l307 0 -22 -47 c-32
-72 -30 -189 5 -265 32 -70 96 -133 168 -167 46 -22 69 -26 140 -26 71 0 94 4
141 26 73 34 134 96 167 168 35 75 37 192 5 264 l-22 47 643 0 643 0 -21 -42
c-17 -34 -21 -61 -21 -133 0 -78 4 -97 28 -147 33 -67 90 -121 166 -157 47
-22 69 -26 141 -25 101 1 156 22 226 86 68 62 96 126 102 223 4 75 -2 104 -33
177 -7 17 12 18 286 20 l294 3 3 158 3 157 -1845 0 c-1664 0 -1846 2 -1860 16
-17 16 -20 41 -10 68 3 9 192 176 420 371 l413 355 1316 0 c1302 0 1315 0
1335 20 11 11 20 32 20 48 0 15 7 405 16 866 l17 840 -21 16 c-21 17 -99 31
-445 82 l-159 23 -41 -50 c-192 -236 -450 -390 -747 -446 -100 -19 -329 -17
-429 5 -176 37 -359 116 -486 212 -182 135 -342 348 -419 555 l-18 46 -189 28
-189 28 -15 51 c-8 28 -66 254 -130 501 -65 256 -123 460 -133 474 -10 14 -31
34 -46 45 -26 20 -42 21 -382 24 l-355 3 3 -153z"/>
</g>
</svg>
