<svg xmlns="http://www.w3.org/2000/svg" xmlns:xlink="http://www.w3.org/1999/xlink" version="1.1" x="0px" y="0px" viewBox="0 0 24 30" style="enable-background:new 0 0 24 24;" xml:space="preserve"><style type="text/css">
	.st0{fill:#FFFFFF;}
</style><g><g><path d="M12,1.607666L3,6.803833v10.392334l9,5.196106l9-5.196106V6.803833L12,1.607666z M12,2.7623901L19.3397217,7    l-3.107605,1.7941895L16.25,8.7631836L8.9282837,4.5358887L12,2.7623901z M11.5,20.9489136L4,16.6187744V7.7734985l7.5,4.3300781    V20.9489136z M4.6602783,7l3.2678223-1.8867188l7.3396606,4.2376709L12,11.2376099L4.6602783,7z M20,16.6187744l-7.5,4.3301392    v-8.8453369L20,7.7734985V16.6187744z"/><g><polygon points="15,15.7321777 15,17.7321777 18,16 18,14    "/></g></g></g><text x="0" y="39" fill="#000000" font-size="5px" font-weight="bold" font-family="'Helvetica Neue', Helvetica, Arial-Unicode, Arial, Sans-serif">Created by Sophia</text><text x="0" y="44" fill="#000000" font-size="5px" font-weight="bold" font-family="'Helvetica Neue', Helvetica, Arial-Unicode, Arial, Sans-serif">from the Noun Project</text></svg>